<svg width="16" height="16" viewBox="0 0 16 16" fill="none" xmlns="http://www.w3.org/2000/svg">
<path d="M9.29997 1.62484L10.62 4.26484C10.8 4.62484 11.28 4.98484 11.68 5.04484L14.07 5.44484C15.6 5.70484 15.96 6.80484 14.86 7.90484L13 9.77484C12.69 10.0848 12.51 10.6948 12.61 11.1348L13.14 13.4448C13.56 15.2648 12.59 15.9748 10.98 15.0248L8.73997 13.6948C8.32997 13.4548 7.66997 13.4548 7.25997 13.6948L5.00997 15.0148C3.39997 15.9648 2.42997 15.2548 2.84997 13.4348L3.37997 11.1248C3.47997 10.6948 3.29997 10.0848 2.98997 9.76484L1.13997 7.91484C0.0399733 6.81484 0.399973 5.70484 1.92997 5.45484L4.31997 5.05484C4.71997 4.98484 5.19997 4.63484 5.37997 4.27484L6.69997 1.63484C7.40997 0.194842 8.58997 0.194842 9.29997 1.62484Z" fill="#F3CC40"/>
</svg>
